<svg viewBox="0 0 48 48" fill="none" xmlns="http://www.w3.org/2000/svg">
  <g>
    <path fill="#38BDF8" d="M24.026 13.5c-5.36 0-8.7 2.68-10.01 8.04 2-2.68 4.13-3.7 6.39-3.06 1.39.37 2.39 1.44 3.5 2.59 1.8 1.83 3.85 3.91 8.36 3.91 5.36 0 8.7-2.68 10.01-8.04-2 2.68-4.13 3.7-6.39 3.06-1.39-.37-2.39-1.44-3.5-2.59-1.8-1.83-3.85-3.91-8.36-3.91z"/>
    <path fill="#38BDF8" d="M14.016 27.5c-5.36 0-8.7 2.68-10.01 8.04 2-2.68 4.13-3.7 6.39-3.06 1.39.37 2.39 1.44 3.5 2.59 1.8 1.83 3.85 3.91 8.36 3.91 5.36 0 8.7-2.68 10.01-8.04-2 2.68-4.13 3.7-6.39 3.06-1.39-.37-2.39-1.44-3.5-2.59-1.8-1.83-3.85-3.91-8.36-3.91z"/>
  </g>
</svg>