<svg xmlns="http://www.w3.org/2000/svg" width="256" height="256" viewBox="0 0 256 256">
  <rect width="256" height="256" rx="24" fill="#3178C6"/>
  <path fill="#fff" d="M142.8 123.7H85.3v18h21.1v66.5h18.9v-66.5h17.5v-18zm20.7 84.5v-16.8c11.2 5.8 21.2 8.7 30.1 8.7 6.9 0 11.8-1.1 14.8-3.2 3-2.1 4.5-5.3 4.5-9.6 0-3.6-1.1-6.6-3.4-8.7-2.3-2.2-7-4.9-14.1-8.1l-6.4-2.8c-12.7-5.4-21.3-10.8-25.7-16.1-4.4-5.3-6.5-12.3-6.5-21 0-10.9 3.7-19.7 11-26.1 7.3-6.4 17.4-9.6 30.1-9.6 12 0 23.3 2.1 34 6.2v15.5c-10.3-5.5-20.6-8.3-30.8-8.3-6.1 0-10.8 1.3-14.1 3.8-3.3 2.6-5 6-5 10.3 0 2.7.6 5.2 1.9 7.2 1.3 2.1 3.3 3.9 6.1 5.6 2.8 1.7 8.1 4.2 15.9 7.6 10.8 4.5 18.4 9.5 22.6 14.8 4.3 5.3 6.4 12.2 6.4 20.8 0 11.5-3.6 20.4-10.9 26.8-7.3 6.4-18 9.6-32.1 9.6-13.3 0-25.6-2.6-36.9-7.7z"/>
</svg>
